<mxfile host="app.diagrams.net" modified="2023-02-23T19:36:17.537Z" agent="5.0 (X11; Linux x86_64) AppleWebKit/537.36 (KHTML, like Gecko) Chrome/110.0.0.0 Safari/537.36" etag="GG9UwADVub0maiSJ53Ap" version="20.8.23" type="github">
  <diagram name="Page-1" id="efa7a0a1-bf9b-a30e-e6df-94a7791c09e9">
    <mxGraphModel dx="419" dy="459" grid="1" gridSize="10" guides="1" tooltips="1" connect="1" arrows="1" fold="1" page="1" pageScale="1" pageWidth="826" pageHeight="1169" background="none" math="0" shadow="0">
      <root>
        <mxCell id="0" />
        <mxCell id="1" parent="0" />
        <mxCell id="oUz0iYqYt7ZArJXqbQJP-115" value="Users-Mercado" style="text;html=1;strokeColor=none;fillColor=none;align=left;verticalAlign=middle;whiteSpace=wrap;rounded=0;fontSize=24;fontStyle=1" vertex="1" parent="1">
          <mxGeometry x="50" y="50" width="150" height="30" as="geometry" />
        </mxCell>
        <mxCell id="oUz0iYqYt7ZArJXqbQJP-116" value="Users" style="swimlane;childLayout=stackLayout;horizontal=1;startSize=30;horizontalStack=0;rounded=1;fontSize=14;fontStyle=0;strokeWidth=2;resizeParent=0;resizeLast=1;shadow=0;dashed=0;align=center;" vertex="1" parent="1">
          <mxGeometry x="50" y="120" width="190" height="130" as="geometry" />
        </mxCell>
        <mxCell id="oUz0iYqYt7ZArJXqbQJP-117" value="id -&gt; number&#xa;acesso -&gt; [owner, normal]&#xa;nome -&gt; string&#xa;estabelecimento_id -&gt; number&#xa;profile_image -&gt; string&#xa;documento -&gt; [cpf, cnpj]" style="align=left;strokeColor=none;fillColor=none;spacingLeft=4;fontSize=12;verticalAlign=top;resizable=0;rotatable=0;part=1;" vertex="1" parent="oUz0iYqYt7ZArJXqbQJP-116">
          <mxGeometry y="30" width="190" height="100" as="geometry" />
        </mxCell>
      </root>
    </mxGraphModel>
  </diagram>
</mxfile>
